<?xml version="1.0" encoding="utf-8"?>
<!-- Generator: Adobe Illustrator 22.1.0, SVG Export Plug-In . SVG Version: 6.00 Build 0)  -->
<svg version="1.1" id="Layer_1" xmlns="http://www.w3.org/2000/svg" xmlns:xlink="http://www.w3.org/1999/xlink" x="0px" y="0px"
	 viewBox="0 0 612 612" style="enable-background:new 0 0 612 612;" xml:space="preserve">
<style type="text/css">
	.st0{fill:#020203;}
	.st1{font-family:'Cg224CaslonBdIt';}
	.st2{font-size:9.368px;}
	.st3{font-size:12.4907px;}
	.st4{font-size:15.613px;}
	.st5{font-size:18.7356px;}
	.st6{font-size:21.8584px;}
	.st7{font-size:24.9809px;}
	.st8{font-size:28.1034px;}
	.st9{font-size:31.2259px;}
	.st10{font-size:34.3494px;}
	.st11{font-size:37.4721px;}
	.st12{font-size:40.5947px;}
	.st13{font-size:43.7163px;}
	.st14{font-size:46.839px;}
	.st15{font-size:49.962px;}
	.st16{font-size:53.0846px;}
	.st17{font-size:56.2069px;}
</style>
<text transform="matrix(0 -1 1 0 442.3084 287.1357)" class="st0 st1 st2">I’m scalable.</text>
<text transform="matrix(0.342 -0.9397 0.9397 0.342 449.3129 291.6797)" class="st0 st1 st3">I’m scalable.</text>
<text transform="matrix(0.6428 -0.766 0.766 0.6428 455.5921 300.0763)" class="st0 st1 st4">I’m scalable.</text>
<text transform="matrix(0.866 -0.5 0.5 0.866 459.319 312.1046)" class="st0 st1 st5">I’m scalable.</text>
<text transform="matrix(0.9848 -0.1736 0.1736 0.9848 458.5573 326.6857)" class="st0 st1 st6">I’m scalable.</text>
<text transform="matrix(0.9848 0.1736 -0.1736 0.9848 451.9584 342.0906)" class="st0 st1 st7">I’m scalable.</text>
<text transform="matrix(0.866 0.5 -0.5 0.866 439.1547 355.7902)" class="st0 st1 st8">I’m scalable.</text>
<text transform="matrix(0.6428 0.766 -0.766 0.6428 420.4698 365.1798)" class="st0 st1 st9">I’m scalable.</text>
<text transform="matrix(0.342 0.9397 -0.9397 0.342 397.6194 367.9492)" class="st0 st1 st10">I’m scalable.</text>
<text transform="matrix(0 1 -1 0 373.2246 362.2988)" class="st0 st1 st11">I’m scalable.</text>
<text transform="matrix(-0.342 0.9397 -0.9397 -0.342 350.4093 347.4295)" class="st0 st1 st12">I’m scalable.</text>
<text transform="matrix(-0.6428 0.766 -0.766 -0.6428 332.8036 324.0257)" class="st0 st1 st13">I’m scalable.</text>
<text transform="matrix(-0.866 0.5 -0.5 -0.866 323.7311 294.0399)" class="st0 st1 st14">I’m scalable.</text>
<text transform="matrix(-0.9848 0.1736 -0.1736 -0.9848 325.549 260.5971)" class="st0 st1 st15">I’m scalable.</text>
<text transform="matrix(-0.9848 -0.1736 0.1736 -0.9848 339.4653 227.9293)" class="st0 st1 st16">I’m scalable.</text>
<text transform="matrix(-0.866 -0.5 0.5 -0.866 365.2389 200.3778)" class="st0 st1 st17">I’m scalable.</text>
</svg>
